<?xml version="1.0" standalone="no"?>
<!DOCTYPE svg PUBLIC "-//W3C//DTD SVG 20010904//EN"
 "http://www.w3.org/TR/2001/REC-SVG-20010904/DTD/svg10.dtd">
<svg version="1.0" xmlns="http://www.w3.org/2000/svg"
 width="1280.000000pt" height="720.000000pt" viewBox="0 0 1280.000000 720.000000"
 preserveAspectRatio="xMidYMid meet">
<metadata>
Created by potrace 1.16, written by Peter Selinger 2001-2019
</metadata>
<g transform="translate(0.000000,720.000000) scale(0.100000,-0.100000)"
fill="#000000" stroke="none">
<path d="M1905 6295 c-188 -34 -380 -112 -532 -217 -99 -67 -254 -221 -322
-318 -310 -441 -323 -1035 -33 -1485 212 -330 551 -543 949 -596 107 -14 329
-6 428 16 257 56 481 176 661 353 179 176 298 385 360 635 35 142 44 370 20
518 -93 560 -524 998 -1080 1094 -107 18 -351 19 -451 0z m-3 -982 l3 -268
229 268 228 267 121 0 c113 0 119 -1 105 -17 -8 -10 -121 -141 -251 -291 -131
-150 -237 -277 -237 -281 0 -4 109 -132 243 -283 133 -150 248 -282 256 -291
13 -16 5 -17 -111 -17 l-125 0 -224 260 c-123 143 -227 260 -231 260 -5 0 -8
-117 -8 -260 l0 -260 -95 0 -95 0 0 590 0 590 95 0 95 0 2 -267z"/>
<path d="M4751 6294 c-100 -17 -264 -70 -353 -115 -366 -184 -623 -517 -710
-922 -28 -134 -31 -378 -4 -510 152 -775 921 -1243 1681 -1022 372 108 694
399 841 759 201 494 96 1047 -272 1426 -202 208 -452 340 -727 385 -114 18
-342 18 -456 -1z m388 -719 c100 -24 196 -79 276 -159 115 -116 168 -251 168
-426 0 -213 -90 -386 -256 -498 -110 -73 -195 -97 -342 -97 -147 0 -232 24
-342 97 -116 78 -197 190 -239 333 -22 73 -25 236 -5 315 50 206 226 385 427
434 79 19 234 19 313 1z"/>
<path d="M4845 5403 c-113 -41 -197 -126 -235 -239 -59 -175 -21 -379 92 -493
24 -24 72 -58 108 -75 61 -29 72 -31 175 -31 100 0 116 3 173 29 163 75 255
271 223 475 -23 149 -98 259 -217 317 -52 25 -72 29 -164 32 -81 2 -116 -2
-155 -15z"/>
<path d="M7615 6296 c-280 -54 -497 -164 -693 -350 -166 -158 -305 -395 -363
-621 -41 -156 -51 -381 -25 -545 102 -641 655 -1110 1309 -1110 628 0 1160
437 1294 1060 14 65 18 128 18 270 -1 166 -4 196 -27 290 -56 222 -129 370
-268 543 -165 205 -423 370 -685 438 -109 29 -136 32 -305 35 -127 2 -207 -1
-255 -10z m155 -1226 l0 -510 200 0 200 0 0 -80 0 -80 -295 0 -295 0 0 590 0
590 95 0 95 0 0 -510z"/>
<path d="M10460 6294 c-539 -98 -952 -505 -1066 -1054 -27 -127 -25 -381 4
-517 110 -514 499 -907 1012 -1024 122 -28 347 -35 475 -16 379 59 700 263
910 577 149 223 218 456 218 735 0 286 -83 545 -250 777 -66 92 -210 233 -305
302 -150 106 -357 191 -540 221 -114 18 -354 18 -458 -1z m560 -794 l0 -80
-230 0 -230 0 0 -170 0 -170 205 0 205 0 0 -80 0 -80 -205 0 -205 0 0 -180 0
-180 230 0 230 0 0 -80 0 -80 -325 0 -325 0 0 590 0 590 325 0 325 0 0 -80z"/>
<path d="M1990 3454 c-277 -35 -538 -149 -731 -320 -390 -347 -538 -856 -399
-1372 30 -112 134 -318 214 -423 198 -262 499 -446 821 -504 119 -21 351 -21
470 0 406 73 764 341 949 713 53 106 103 262 122 382 20 124 15 363 -10 475
-59 271 -180 489 -375 678 -189 183 -407 299 -666 352 -77 16 -323 28 -395 19z
m-90 -989 c0 -146 3 -265 8 -265 4 0 108 119 232 265 l225 265 118 0 c65 0
117 -4 115 -8 -1 -5 -113 -135 -248 -291 -135 -155 -245 -288 -245 -295 0 -11
232 -279 474 -548 l33 -38 -128 1 -129 0 -225 262 -225 262 -3 -263 -2 -262
-95 0 -95 0 0 583 c0 321 3 587 7 590 3 4 46 7 95 7 l88 0 0 -265z"/>
<path d="M4840 3454 c-784 -97 -1306 -818 -1150 -1586 117 -572 594 -996 1179
-1047 190 -16 381 8 556 70 449 158 777 543 862 1013 22 123 22 352 -1 470
-103 534 -499 943 -1021 1056 -97 21 -339 35 -425 24z m558 -821 l-3 -78 -157
-3 -158 -3 0 -509 0 -510 -95 0 -95 0 0 510 0 509 -157 3 -158 3 -3 78 -3 77
416 0 416 0 -3 -77z"/>
<path d="M7710 3454 c-14 -2 -59 -9 -100 -15 -273 -40 -569 -205 -764 -427
-163 -186 -274 -420 -312 -662 -26 -162 -16 -389 24 -540 63 -241 173 -432
351 -610 198 -197 428 -317 698 -366 118 -21 342 -21 461 0 533 94 952 500
1068 1036 26 118 27 410 1 527 -58 271 -168 473 -362 669 -194 196 -410 313
-680 369 -76 16 -332 29 -385 19z m286 -679 c-4 -12 -349 -185 -368 -185 -5 0
-8 30 -6 67 l3 68 185 102 185 103 3 -72 c2 -39 1 -77 -2 -83z m-76 -775 l0
-470 -95 0 -95 0 0 470 0 470 95 0 95 0 0 -470z"/>
<path d="M10520 3450 c-562 -79 -1003 -489 -1122 -1043 -29 -136 -31 -390 -5
-517 114 -548 512 -945 1052 -1052 127 -25 350 -26 480 -3 273 49 502 169 701
369 259 259 387 566 387 931 0 365 -129 681 -383 935 -188 189 -423 315 -683
365 -98 19 -336 28 -427 15z m-11 -1203 c90 -254 169 -473 176 -485 14 -29 -4
-74 206 515 l154 433 102 0 103 0 -18 -47 c-10 -27 -110 -292 -222 -590 l-204
-543 -113 0 c-62 0 -113 2 -113 4 0 2 -99 266 -220 587 -121 320 -220 584
-220 586 0 2 46 3 103 3 l102 0 164 -463z"/>
</g>
</svg>
